HIERARCHY
ROOT joint_Root
{
	OFFSET 0.0 0.0 0.0
	CHANNELS 6 Xposition Yposition Zposition Zrotation Xrotation Yrotation 
	JOINT Hips
	{
		OFFSET -0.726466 93.3139 -2.00062
		CHANNELS 6 Xposition Yposition Zposition Zrotation Xrotation Yrotation 
		JOINT Spine
		{
			OFFSET 15.7357 0.0 0.0
			CHANNELS 6 Xposition Yposition Zposition Zrotation Xrotation Yrotation 
			JOINT Chest
			{
				OFFSET 8.98455 -0.406207 0.0
				CHANNELS 6 Xposition Yposition Zposition Zrotation Xrotation Yrotation 
				JOINT Neck
				{
					OFFSET 16.3773 0.0 0.0
					CHANNELS 6 Xposition Yposition Zposition Zrotation Xrotation Yrotation 
					JOINT Head
					{
						OFFSET 6.45672 0.0 0.0
						CHANNELS 6 Xposition Yposition Zposition Zrotation Xrotation Yrotation 
						End Site
						{
							OFFSET 0.0 0.0 0.0
						}
					}
				}
				JOINT Shoulder_L
				{
					OFFSET 12.9942 -0.242716 4.98039
					CHANNELS 6 Xposition Yposition Zposition Zrotation Xrotation Yrotation 
					JOINT UpperArm_L
					{
						OFFSET 5.34809 0.0 0.0
						CHANNELS 6 Xposition Yposition Zposition Zrotation Xrotation Yrotation 
						JOINT LowerArm_L
						{
							OFFSET 24.3286 1.87007e-05 0.0
							CHANNELS 6 Xposition Yposition Zposition Zrotation Xrotation Yrotation 
							JOINT Hand_L
							{
								OFFSET 22.2916 0.0 0.0
								CHANNELS 6 Xposition Yposition Zposition Zrotation Xrotation Yrotation 
								End Site
								{
									OFFSET 0.0 0.0 0.0
								}
							}
						}
					}
				}
				JOINT Shoulder_R
				{
					OFFSET 12.9945 -0.242716 -4.98039
					CHANNELS 6 Xposition Yposition Zposition Zrotation Xrotation Yrotation 
					JOINT UpperArm_R
					{
						OFFSET -5.34813 0.0 0.0
						CHANNELS 6 Xposition Yposition Zposition Zrotation Xrotation Yrotation 
						JOINT LowerArm_R
						{
							OFFSET -24.3289 0.000322201 0.0
							CHANNELS 6 Xposition Yposition Zposition Zrotation Xrotation Yrotation 
							JOINT Hand_R
							{
								OFFSET -22.2915 -0.000108084 0.0
								CHANNELS 6 Xposition Yposition Zposition Zrotation Xrotation Yrotation 
								End Site
								{
									OFFSET 0.0 0.0 0.0
								}
							}
						}
					}
				}
			}
		}
		JOINT UpperLeg_L
		{
			OFFSET -2.19248 -6.46944 0.0
			CHANNELS 6 Xposition Yposition Zposition Zrotation Xrotation Yrotation 
			JOINT LowerLeg_L
			{
				OFFSET 39.0811 0.0 -1.23785e-05
				CHANNELS 6 Xposition Yposition Zposition Zrotation Xrotation Yrotation 
				JOINT Foot_L
				{
					OFFSET 40.9854 0.0 -1.26872e-05
					CHANNELS 6 Xposition Yposition Zposition Zrotation Xrotation Yrotation 
					JOINT Toes_L
					{
						OFFSET 11.7543 0.0 0.0
						CHANNELS 6 Xposition Yposition Zposition Zrotation Xrotation Yrotation 
						End Site
						{
							OFFSET 0.0 0.0 0.0
						}
					}
				}
			}
		}
		JOINT UpperLeg_R
		{
			OFFSET -2.19251 6.46944 0.0
			CHANNELS 6 Xposition Yposition Zposition Zrotation Xrotation Yrotation 
			JOINT LowerLeg_R
			{
				OFFSET -39.0811 -0.00228153 -0.0401928
				CHANNELS 6 Xposition Yposition Zposition Zrotation Xrotation Yrotation 
				JOINT Foot_R
				{
					OFFSET -40.9854 0.0 0.0
					CHANNELS 6 Xposition Yposition Zposition Zrotation Xrotation Yrotation 
					JOINT Toes_R
					{
						OFFSET -11.7543 0.0 0.0
						CHANNELS 6 Xposition Yposition Zposition Zrotation Xrotation Yrotation 
						End Site
						{
							OFFSET 0.0 0.0 0.0
						}
					}
				}
			}
		}
	}
}
MOTION
Frames:	6
Frame Time:	0.0333333
0.000000 0.000000 0.000000 0.000000 0.000000 -0.000000 1.718420 83.328800 434.085000 -89.695300 6.242260 172.226000 15.735700 0.000005 -0.000001 107.176000 81.064800 -106.388000 8.984550 -0.406207 -0.000000 9.300450 5.258460 1.146800 16.377300 -0.000001 -0.000001 -0.147669 -0.508956 0.323951 6.456720 -0.000001 -0.000000 -1.260940 -3.258410 -3.045210 12.994200 -0.242716 4.980390 -87.516800 -6.202150 -68.131000 5.348090 -0.000007 -0.000001 -73.465300 42.241200 17.886800 24.328600 0.000019 0.000005 2.717730 0.504289 -79.547400 22.291600 -0.000001 0.000005 -2.828260 5.592860 -10.905100 12.994500 -0.242716 -4.980390 89.524900 1.588550 -73.352400 -5.348130 -0.000001 -0.000004 -51.332100 32.261900 -43.496600 -24.328900 0.000322 -0.000009 -0.295087 0.103664 -109.202000 -22.291500 -0.000108 -0.000004 13.907800 5.612590 -12.129500 -2.192480 -6.469440 -0.000000 174.777000 -3.396980 -48.414900 39.081100 -0.000007 -0.000012 -0.332578 -0.109161 108.173000 40.985400 -0.000006 -0.000013 13.151900 -9.083750 -55.403100 11.754300 -0.000000 0.000003 -0.011813 -0.116733 -21.335300 -2.192510 6.469440 -0.000001 179.534000 6.796190 172.805000 -39.081100 -0.002282 -0.040193 0.082381 -0.080673 44.441200 -40.985400 0.000008 0.000006 8.292850 2.100470 -87.556800 -11.754300 -0.000006 -0.000006 -0.881137 -0.988630 -25.047400
0.000000 0.000000 0.000000 0.000000 0.000000 -0.000000 1.001490 86.311100 426.652000 -92.277500 6.793750 171.184000 15.735700 0.000005 -0.000001 112.130000 81.571400 -112.688000 8.984550 -0.406207 -0.000000 7.916690 6.323040 -1.553030 16.377300 -0.000001 -0.000001 0.447012 -0.832212 0.239136 6.456720 -0.000001 -0.000000 -0.124709 -5.414280 -1.303680 12.994200 -0.242716 4.980390 -86.726100 -7.842770 -67.256800 5.348090 -0.000007 -0.000001 -73.563300 41.490500 22.418600 24.328600 0.000019 0.000005 0.748611 0.074055 -84.408200 22.291600 -0.000001 0.000005 -3.605210 5.569890 -9.684650 12.994500 -0.242716 -4.980390 90.007700 -0.025648 -73.346900 -5.348130 -0.000001 -0.000004 -51.514300 33.582400 -46.337400 -24.328900 0.000322 -0.000009 -2.928010 1.249500 -113.071000 -22.291500 -0.000108 -0.000004 14.197700 5.612350 -12.104600 -2.192480 -6.469440 -0.000000 172.236000 -1.685960 -50.378700 39.081100 -0.000007 -0.000012 -0.135157 -0.012591 95.326400 40.985400 -0.000006 -0.000013 11.518200 -10.906500 -59.177400 11.754300 -0.000000 0.000003 -0.009099 -0.096791 -20.519400 -2.192510 6.469440 -0.000001 175.507000 6.242740 178.690000 -39.081100 -0.002282 -0.040193 0.050334 -0.064735 36.007500 -40.985400 0.000008 0.000006 8.091220 4.122300 -72.779000 -11.754300 -0.000006 -0.000006 -0.111683 -0.472662 -36.361300
0.000000 0.000000 0.000000 0.000000 0.000000 -0.000000 0.380317 89.527500 419.427000 -93.352300 6.458080 169.729000 15.735700 0.000005 -0.000001 114.911000 82.186600 -116.159000 8.984550 -0.406207 -0.000000 6.512890 6.576030 -2.869880 16.377300 -0.000001 -0.000001 0.746378 -1.096740 -0.184182 6.456720 -0.000001 -0.000000 0.439065 -6.457130 -0.582900 12.994200 -0.242716 4.980390 -86.140500 -9.140010 -66.988800 5.348090 -0.000007 -0.000001 -75.126300 39.374600 25.789400 24.328600 0.000019 0.000005 -0.482098 -0.017025 -87.919800 22.291600 -0.000001 0.000005 -2.912430 5.555780 -8.982840 12.994500 -0.242716 -4.980390 90.534200 -1.769680 -73.201200 -5.348130 -0.000001 -0.000004 -52.123000 36.126000 -47.031500 -24.328900 0.000322 -0.000009 -2.850490 1.334000 -115.060000 -22.291500 -0.000108 -0.000004 12.961900 5.599590 -11.287100 -2.192480 -6.469440 -0.000000 171.772000 -0.052933 -49.498200 39.081100 -0.000007 -0.000012 -0.014157 0.003178 77.376000 40.985400 -0.000006 -0.000013 10.551300 -12.271000 -62.215100 11.754300 -0.000000 0.000003 -0.009152 -0.097197 -20.536000 -2.192510 6.469440 -0.000001 172.493000 9.945590 -178.259000 -39.081100 -0.002282 -0.040193 0.048198 -0.077710 30.016700 -40.985400 0.000008 0.000006 7.677170 9.436950 -54.069600 -11.754300 -0.000006 -0.000006 -0.247232 -0.718344 -47.756200
0.000000 0.000000 0.000000 0.000000 0.000000 -0.000000 0.122429 92.001400 412.041000 -92.156200 5.303850 170.197000 15.735700 0.000005 -0.000001 114.355000 82.131100 -115.441000 8.984550 -0.406207 -0.000000 6.666520 6.480210 -2.549690 16.377300 -0.000001 -0.000001 0.795285 -1.263380 -0.589193 6.456720 -0.000001 -0.000000 0.270399 -6.892990 -0.408198 12.994200 -0.242716 4.980390 -85.716800 -10.360600 -67.389800 5.348090 -0.000007 -0.000001 -77.067700 36.634400 26.954400 24.328600 0.000019 0.000005 -1.144150 0.001249 -90.065000 22.291600 -0.000001 0.000005 -2.328260 5.555130 -8.950410 12.994500 -0.242716 -4.980390 90.845900 -2.828520 -73.343000 -5.348130 -0.000001 -0.000004 -53.430600 38.708600 -45.601400 -24.328900 0.000322 -0.000009 -2.093170 0.977297 -115.018000 -22.291500 -0.000108 -0.000004 11.435100 5.583190 -10.382600 -2.192480 -6.469440 -0.000000 174.240000 0.962593 -43.507500 39.081100 -0.000007 -0.000012 0.040625 -0.027226 56.166600 40.985400 -0.000006 -0.000013 8.959200 -9.384610 -65.919300 11.754300 -0.000000 0.000003 -0.007855 -0.086856 -20.113500 -2.192510 6.469440 -0.000001 171.468000 13.179100 -174.576000 -39.081100 -0.002282 -0.040193 0.069487 -0.133601 26.351000 -40.985400 0.000008 0.000006 2.962710 13.611700 -36.950700 -11.754300 -0.000006 -0.000006 -0.137516 -0.529468 -38.891400
0.000000 0.000000 0.000000 0.000000 0.000000 -0.000000 0.348316 92.748000 404.336000 -90.174900 4.209950 171.396000 15.735700 0.000005 -0.000001 113.839000 81.822500 -114.432000 8.984550 -0.406207 -0.000000 7.264580 6.588860 -1.605130 16.377300 -0.000001 -0.000001 0.508041 -1.484130 -1.187220 6.456720 -0.000001 -0.000000 0.139003 -7.169700 -0.347170 12.994200 -0.242716 4.980390 -85.526900 -11.266200 -68.177700 5.348090 -0.000007 -0.000001 -78.450200 34.690000 25.767400 24.328600 0.000019 0.000005 0.125648 -0.003874 -91.597700 22.291600 -0.000001 0.000005 -1.664140 5.553620 -8.878610 12.994500 -0.242716 -4.980390 91.051600 -3.543100 -73.456500 -5.348130 -0.000001 -0.000004 -55.622800 41.473400 -41.755100 -24.328900 0.000322 -0.000009 -2.085840 0.879405 -112.863000 -22.291500 -0.000108 -0.000004 11.840100 5.575870 -9.992520 -2.192480 -6.469440 -0.000000 177.296000 0.675483 -35.984500 39.081100 -0.000007 -0.000012 0.027511 -0.037564 36.216500 40.985400 -0.000006 -0.000013 4.557750 -4.828700 -67.056600 11.754300 -0.000000 0.000003 -0.007293 -0.082170 -19.922200 -2.192510 6.469440 -0.000001 173.503000 10.135800 -172.300000 -39.081100 -0.002282 -0.040193 0.084324 -0.150755 28.254500 -40.985400 0.000008 0.000006 -0.934783 8.383900 -29.489400 -11.754300 -0.000006 -0.000006 -0.031415 -0.223876 -25.748200
0.000000 0.000000 0.000000 0.000000 0.000000 -0.000000 0.566216 92.184400 396.379000 -88.285600 4.043850 171.938000 15.735700 0.000005 -0.000001 114.150000 81.788100 -114.404000 8.984550 -0.406207 -0.000000 7.272930 6.696130 -0.934572 16.377300 -0.000001 -0.000001 0.028717 -1.395310 -1.091680 6.456720 -0.000001 -0.000000 0.234068 -6.871040 -0.517189 12.994200 -0.242716 4.980390 -85.610600 -11.220900 -68.472600 5.348090 -0.000007 -0.000001 -78.770300 32.876500 22.523300 24.328600 0.000019 0.000005 2.371660 -0.117673 -92.834400 22.291600 -0.000001 0.000005 -1.532690 5.548780 -8.648480 12.994500 -0.242716 -4.980390 91.015600 -3.452910 -73.599200 -5.348130 -0.000001 -0.000004 -59.034500 44.058200 -35.432700 -24.328900 0.000322 -0.000009 -3.446690 1.157900 -108.545000 -22.291500 -0.000108 -0.000004 12.876800 5.581450 -10.287400 -2.192480 -6.469440 -0.000000 178.482000 -2.856580 -31.005000 39.081100 -0.000007 -0.000012 0.002048 -0.004423 24.848600 40.985400 -0.000006 -0.000013 0.823719 -2.120540 -67.997700 11.754300 -0.000000 0.000003 -0.007129 -0.080776 -19.865300 -2.192510 6.469440 -0.000001 177.990000 3.370770 -172.926000 -39.081100 -0.002282 -0.040193 0.042089 -0.051762 36.856600 -40.985400 0.000008 0.000006 1.795100 1.109200 -33.348100 -11.754300 -0.000006 -0.000006 -0.032293 -0.227788 -25.910800
